<svg xmlns="http://www.w3.org/2000/svg" version="1.1" width="1920" height="22000" >
<text x="90" y="15" fill="red">This is the Inital ROD this is the Final ROD This is the Aux ROD</text><rect x="100" y="250" width="400" height="20" fill="lime" />
<rect x="100" y="70" width="20" height="190" fill="lime" />
<rect x="290" y="70" width="20" height="190" fill="lime" />
<rect x="480" y="70" width="20" height="190" fill="lime" />
<rect x="105" y="180" width="30" height="10" fill="indigo" /> 
<rect x="95" y="155" width="45" height="15" fill="magenta" /> 
<rect x="85" y="130" width="60" height="20" fill="blue" /> 
<rect x="75" y="105" width="75" height="25" fill="yellow" /> 
<rect x="100" y="500" width="400" height="20" fill="lime" />
<rect x="100" y="320" width="20" height="190" fill="lime" />
<rect x="290" y="320" width="20" height="190" fill="lime" />
<rect x="480" y="320" width="20" height="190" fill="lime" />
<rect x="105" y="430" width="30" height="10" fill="indigo" /> 
<rect x="95" y="405" width="45" height="15" fill="magenta" /> 
<rect x="85" y="380" width="60" height="20" fill="blue" /> 
<rect x="445" y="355" width="75" height="25" fill="yellow" /> 
<rect x="100" y="750" width="400" height="20" fill="lime" />
<rect x="100" y="570" width="20" height="190" fill="lime" />
<rect x="290" y="570" width="20" height="190" fill="lime" />
<rect x="480" y="570" width="20" height="190" fill="lime" />
<rect x="105" y="680" width="30" height="10" fill="indigo" /> 
<rect x="95" y="655" width="45" height="15" fill="magenta" /> 
<rect x="270" y="630" width="60" height="20" fill="blue" /> 
<rect x="445" y="605" width="75" height="25" fill="yellow" /> 
<rect x="100" y="1000" width="400" height="20" fill="lime" />
<rect x="100" y="820" width="20" height="190" fill="lime" />
<rect x="290" y="820" width="20" height="190" fill="lime" />
<rect x="480" y="820" width="20" height="190" fill="lime" />
<rect x="105" y="930" width="30" height="10" fill="indigo" /> 
<rect x="95" y="905" width="45" height="15" fill="magenta" /> 
<rect x="270" y="880" width="60" height="20" fill="blue" /> 
<rect x="260" y="855" width="75" height="25" fill="yellow" /> 
<rect x="100" y="1250" width="400" height="20" fill="lime" />
<rect x="100" y="1070" width="20" height="190" fill="lime" />
<rect x="290" y="1070" width="20" height="190" fill="lime" />
<rect x="480" y="1070" width="20" height="190" fill="lime" />
<rect x="105" y="1180" width="30" height="10" fill="indigo" /> 
<rect x="465" y="1155" width="45" height="15" fill="magenta" /> 
<rect x="270" y="1130" width="60" height="20" fill="blue" /> 
<rect x="260" y="1105" width="75" height="25" fill="yellow" /> 
<rect x="100" y="1500" width="400" height="20" fill="lime" />
<rect x="100" y="1320" width="20" height="190" fill="lime" />
<rect x="290" y="1320" width="20" height="190" fill="lime" />
<rect x="480" y="1320" width="20" height="190" fill="lime" />
<rect x="105" y="1430" width="30" height="10" fill="indigo" /> 
<rect x="465" y="1405" width="45" height="15" fill="magenta" /> 
<rect x="270" y="1380" width="60" height="20" fill="blue" /> 
<rect x="75" y="1355" width="75" height="25" fill="yellow" /> 
<rect x="100" y="1750" width="400" height="20" fill="lime" />
<rect x="100" y="1570" width="20" height="190" fill="lime" />
<rect x="290" y="1570" width="20" height="190" fill="lime" />
<rect x="480" y="1570" width="20" height="190" fill="lime" />
<rect x="105" y="1680" width="30" height="10" fill="indigo" /> 
<rect x="465" y="1655" width="45" height="15" fill="magenta" /> 
<rect x="455" y="1630" width="60" height="20" fill="blue" /> 
<rect x="75" y="1605" width="75" height="25" fill="yellow" /> 
<rect x="100" y="2000" width="400" height="20" fill="lime" />
<rect x="100" y="1820" width="20" height="190" fill="lime" />
<rect x="290" y="1820" width="20" height="190" fill="lime" />
<rect x="480" y="1820" width="20" height="190" fill="lime" />
<rect x="105" y="1930" width="30" height="10" fill="indigo" /> 
<rect x="465" y="1905" width="45" height="15" fill="magenta" /> 
<rect x="455" y="1880" width="60" height="20" fill="blue" /> 
<rect x="445" y="1855" width="75" height="25" fill="yellow" /> 
<rect x="100" y="2250" width="400" height="20" fill="lime" />
<rect x="100" y="2070" width="20" height="190" fill="lime" />
<rect x="290" y="2070" width="20" height="190" fill="lime" />
<rect x="480" y="2070" width="20" height="190" fill="lime" />
<rect x="290" y="2180" width="30" height="10" fill="indigo" /> 
<rect x="465" y="2155" width="45" height="15" fill="magenta" /> 
<rect x="455" y="2130" width="60" height="20" fill="blue" /> 
<rect x="445" y="2105" width="75" height="25" fill="yellow" /> 
<rect x="100" y="2500" width="400" height="20" fill="lime" />
<rect x="100" y="2320" width="20" height="190" fill="lime" />
<rect x="290" y="2320" width="20" height="190" fill="lime" />
<rect x="480" y="2320" width="20" height="190" fill="lime" />
<rect x="290" y="2430" width="30" height="10" fill="indigo" /> 
<rect x="465" y="2405" width="45" height="15" fill="magenta" /> 
<rect x="455" y="2380" width="60" height="20" fill="blue" /> 
<rect x="260" y="2355" width="75" height="25" fill="yellow" /> 
<rect x="100" y="2750" width="400" height="20" fill="lime" />
<rect x="100" y="2570" width="20" height="190" fill="lime" />
<rect x="290" y="2570" width="20" height="190" fill="lime" />
<rect x="480" y="2570" width="20" height="190" fill="lime" />
<rect x="290" y="2680" width="30" height="10" fill="indigo" /> 
<rect x="465" y="2655" width="45" height="15" fill="magenta" /> 
<rect x="85" y="2630" width="60" height="20" fill="blue" /> 
<rect x="260" y="2605" width="75" height="25" fill="yellow" /> 
<rect x="100" y="3000" width="400" height="20" fill="lime" />
<rect x="100" y="2820" width="20" height="190" fill="lime" />
<rect x="290" y="2820" width="20" height="190" fill="lime" />
<rect x="480" y="2820" width="20" height="190" fill="lime" />
<rect x="290" y="2930" width="30" height="10" fill="indigo" /> 
<rect x="465" y="2905" width="45" height="15" fill="magenta" /> 
<rect x="85" y="2880" width="60" height="20" fill="blue" /> 
<rect x="75" y="2855" width="75" height="25" fill="yellow" /> 
<rect x="100" y="3250" width="400" height="20" fill="lime" />
<rect x="100" y="3070" width="20" height="190" fill="lime" />
<rect x="290" y="3070" width="20" height="190" fill="lime" />
<rect x="480" y="3070" width="20" height="190" fill="lime" />
<rect x="290" y="3180" width="30" height="10" fill="indigo" /> 
<rect x="280" y="3155" width="45" height="15" fill="magenta" /> 
<rect x="85" y="3130" width="60" height="20" fill="blue" /> 
<rect x="75" y="3105" width="75" height="25" fill="yellow" /> 
<rect x="100" y="3500" width="400" height="20" fill="lime" />
<rect x="100" y="3320" width="20" height="190" fill="lime" />
<rect x="290" y="3320" width="20" height="190" fill="lime" />
<rect x="480" y="3320" width="20" height="190" fill="lime" />
<rect x="290" y="3430" width="30" height="10" fill="indigo" /> 
<rect x="280" y="3405" width="45" height="15" fill="magenta" /> 
<rect x="85" y="3380" width="60" height="20" fill="blue" /> 
<rect x="445" y="3355" width="75" height="25" fill="yellow" /> 
<rect x="100" y="3750" width="400" height="20" fill="lime" />
<rect x="100" y="3570" width="20" height="190" fill="lime" />
<rect x="290" y="3570" width="20" height="190" fill="lime" />
<rect x="480" y="3570" width="20" height="190" fill="lime" />
<rect x="290" y="3680" width="30" height="10" fill="indigo" /> 
<rect x="280" y="3655" width="45" height="15" fill="magenta" /> 
<rect x="270" y="3630" width="60" height="20" fill="blue" /> 
<rect x="445" y="3605" width="75" height="25" fill="yellow" /> 
<rect x="100" y="4000" width="400" height="20" fill="lime" />
<rect x="100" y="3820" width="20" height="190" fill="lime" />
<rect x="290" y="3820" width="20" height="190" fill="lime" />
<rect x="480" y="3820" width="20" height="190" fill="lime" />
<rect x="290" y="3930" width="30" height="10" fill="indigo" /> 
<rect x="280" y="3905" width="45" height="15" fill="magenta" /> 
<rect x="270" y="3880" width="60" height="20" fill="blue" /> 
<rect x="260" y="3855" width="75" height="25" fill="yellow" /> 
</svg>