<svg xmlns="http://www.w3.org/2000/svg" version="1.1" width="1520" height="1500" >
<polyline points="850.000000,366.987305 850.000000,366.987305 859.259277,383.024811 
859.259277,383.024811 877.777832,383.024811 
877.777832,383.024811 868.518555,399.062347 
868.518555,399.062347 877.777771,415.099823 
877.777771,415.099823 896.296204,415.099854 
896.296204,415.099854 905.555481,399.062317 
905.555481,399.062317 914.814758,415.099854 
914.814758,415.099854 933.333252,415.099854 
933.333252,415.099854 924.073975,431.137329 
924.073975,431.137329 933.333191,447.174774 
933.333191,447.174774 914.814758,447.174805 
914.814758,447.174805 905.555481,463.212311 
905.555481,463.212311 914.814758,479.249847 
914.814758,479.249847 933.333313,479.249847 
933.333313,479.249847 924.074036,495.287354 
924.074036,495.287354 933.333313,511.324860 
933.333313,511.324860 951.851807,511.324860 
951.851807,511.324860 961.111084,495.287323 
961.111084,495.287323 970.370361,511.324860 
970.370361,511.324860 988.888855,511.324860 
988.888855,511.324860 998.148132,495.287354 
998.148132,495.287354 988.888855,479.249786 
988.888855,479.249786 1007.407410,479.249786 
1007.407410,479.249786 1016.666626,463.212280 
1016.666626,463.212280 1025.925903,479.249786 
1025.925903,479.249786 1044.444458,479.249786 
1044.444458,479.249786 1035.185181,495.287323 
1035.185181,495.287323 1044.444458,511.324829 
1044.444458,511.324829 1062.963013,511.324829 
1062.963013,511.324829 1072.222168,495.287384 
1072.222168,495.287384 1081.481445,511.324829 
1081.481445,511.324829 1100.000000,511.324829 
1100.000000,511.324829 1090.740723,527.362305 
1090.740723,527.362305 1100.000000,543.399780 
1100.000000,543.399780 1081.481567,543.399841 
1081.481567,543.399841 1072.222290,559.437317 
1072.222290,559.437317 1081.481567,575.474854 
1081.481567,575.474854 1100.000122,575.474854 
1100.000122,575.474854 1090.740845,591.512390 
1090.740845,591.512390 1100.000122,607.549927 
1100.000122,607.549927 1081.481567,607.549866 
1081.481567,607.549866 1072.222290,623.587402 
1072.222290,623.587402 1062.963013,607.549866 
1062.963013,607.549866 1044.444458,607.549866 
1044.444458,607.549866 1035.185181,623.587402 
1035.185181,623.587402 1044.444458,639.625000 
1044.444458,639.625000 1025.925903,639.624939 
1025.925903,639.624939 1016.666687,655.662415 
1016.666687,655.662415 1025.925903,671.699890 
1025.925903,671.699890 1044.444458,671.699829 
1044.444458,671.699829 1035.185181,687.737366 
1035.185181,687.737366 1044.444458,703.774902 
1044.444458,703.774902 1062.963013,703.774902 
1062.963013,703.774902 1072.222290,687.737366 
1072.222290,687.737366 1081.481567,703.774902 
1081.481567,703.774902 1100.000122,703.774841 
1100.000122,703.774841 1090.740845,719.812317 
1090.740845,719.812317 1100.000122,735.849915 
1100.000122,735.849915 1081.481567,735.849915 
1081.481567,735.849915 1072.222290,751.887451 
1072.222290,751.887451 1081.481567,767.924988 
1081.481567,767.924988 1100.000000,767.925049 
1100.000000,767.925049 1090.740723,783.962463 
1090.740723,783.962463 1100.000000,800.000000 
1100.000000,800.000000 1081.481445,800.000000 
1081.481445,800.000000 1072.222168,816.037415 
1072.222168,816.037415 1062.963013,800.000000 
1062.963013,800.000000 1044.444458,800.000000 
1044.444458,800.000000 1035.185181,816.037537 
1035.185181,816.037537 1044.444458,832.075073 
1044.444458,832.075073 1025.925903,832.075012 
1025.925903,832.075012 1016.666626,848.112549 
1016.666626,848.112549 1007.407410,832.075012 
1007.407410,832.075012 988.888916,832.075073 
988.888916,832.075073 998.148132,816.037537 
998.148132,816.037537 988.888855,800.000000 
988.888855,800.000000 970.370361,800.000000 
970.370361,800.000000 961.111084,816.037537 
961.111084,816.037537 951.851807,800.000000 
951.851807,800.000000 933.333313,800.000000 
933.333313,800.000000 924.074036,816.037537 
924.074036,816.037537 933.333252,832.075073 
933.333252,832.075073 914.814758,832.075012 
914.814758,832.075012 905.555481,848.112488 
905.555481,848.112488 914.814758,864.149963 
914.814758,864.149963 933.333313,864.149902 
933.333313,864.149902 924.074036,880.187500 
924.074036,880.187500 933.333313,896.224976 
933.333313,896.224976 914.814758,896.225037 
914.814758,896.225037 905.555542,912.262451 
905.555542,912.262451 896.296326,896.225037 
896.296326,896.225037 877.777771,896.225037 
877.777771,896.225037 868.518555,912.262512 
868.518555,912.262512 877.777832,928.300049 
877.777832,928.300049 859.259277,928.300049 
859.259277,928.300049 850.000000,944.337524 
850.000000,944.337524 840.740723,928.300049 
840.740723,928.300049 822.222168,928.300049 
822.222168,928.300049 831.481445,912.262512 
831.481445,912.262512 822.222229,896.225037 
822.222229,896.225037 803.703674,896.225037 
803.703674,896.225037 794.444458,912.262451 
794.444458,912.262451 785.185242,896.225037 
785.185242,896.225037 766.666687,896.224976 
766.666687,896.224976 775.925964,880.187500 
775.925964,880.187500 766.666687,864.149902 
766.666687,864.149902 785.185242,864.149963 
785.185242,864.149963 794.444519,848.112488 
794.444519,848.112488 785.185242,832.075012 
785.185242,832.075012 766.666748,832.075073 
766.666748,832.075073 775.925964,816.037537 
775.925964,816.037537 766.666687,800.000000 
766.666687,800.000000 748.148193,800.000000 
748.148193,800.000000 738.888916,816.037537 
738.888916,816.037537 729.629639,800.000000 
729.629639,800.000000 711.111145,800.000000 
711.111145,800.000000 701.851868,816.037537 
701.851868,816.037537 711.111084,832.075073 
711.111084,832.075073 692.592590,832.075012 
692.592590,832.075012 683.333374,848.112488 
683.333374,848.112488 674.074158,832.075012 
674.074158,832.075012 655.555664,832.075073 
655.555664,832.075073 664.814880,816.037537 
664.814880,816.037537 655.555603,800.000000 
655.555603,800.000000 637.037048,800.000000 
637.037048,800.000000 627.777832,816.037476 
627.777832,816.037476 618.518555,800.000000 
618.518555,800.000000 600.000000,800.000000 
600.000000,800.000000 609.259277,783.962463 
609.259277,783.962463 600.000061,767.924988 
600.000061,767.924988 618.518494,767.924988 
618.518494,767.924988 627.777771,751.887451 
627.777771,751.887451 618.518494,735.849915 
618.518494,735.849915 600.000000,735.849976 
600.000000,735.849976 609.259216,719.812439 
609.259216,719.812439 599.999939,703.774902 
599.999939,703.774902 618.518494,703.774902 
618.518494,703.774902 627.777771,687.737366 
627.777771,687.737366 637.037048,703.774902 
637.037048,703.774902 655.555542,703.774902 
655.555542,703.774902 664.814758,687.737366 
664.814758,687.737366 655.555542,671.699829 
655.555542,671.699829 674.074036,671.699890 
674.074036,671.699890 683.333313,655.662415 
683.333313,655.662415 674.074036,639.624939 
674.074036,639.624939 655.555481,639.625000 
655.555481,639.625000 664.814758,623.587402 
664.814758,623.587402 655.555542,607.549866 
655.555542,607.549866 637.037048,607.549866 
637.037048,607.549866 627.777771,623.587402 
627.777771,623.587402 618.518494,607.549866 
618.518494,607.549866 599.999939,607.549866 
599.999939,607.549866 609.259216,591.512390 
609.259216,591.512390 599.999939,575.474854 
599.999939,575.474854 618.518494,575.474854 
618.518494,575.474854 627.777771,559.437317 
627.777771,559.437317 618.518494,543.399841 
618.518494,543.399841 600.000000,543.399841 
600.000000,543.399841 609.259277,527.362305 
609.259277,527.362305 600.000000,511.324829 
600.000000,511.324829 618.518555,511.324829 
618.518555,511.324829 627.777832,495.287354 
627.777832,495.287354 637.037048,511.324829 
637.037048,511.324829 655.555603,511.324829 
655.555603,511.324829 664.814880,495.287323 
664.814880,495.287323 655.555664,479.249817 
655.555664,479.249817 674.074158,479.249847 
674.074158,479.249847 683.333374,463.212311 
683.333374,463.212311 692.592590,479.249847 
692.592590,479.249847 711.111145,479.249847 
711.111145,479.249847 701.851868,495.287354 
701.851868,495.287354 711.111145,511.324860 
711.111145,511.324860 729.629639,511.324860 
729.629639,511.324860 738.888916,495.287323 
738.888916,495.287323 748.148193,511.324860 
748.148193,511.324860 766.666687,511.324860 
766.666687,511.324860 775.925964,495.287354 
775.925964,495.287354 766.666687,479.249847 
766.666687,479.249847 785.185242,479.249847 
785.185242,479.249847 794.444519,463.212311 
794.444519,463.212311 785.185242,447.174805 
785.185242,447.174805 766.666809,447.174774 
766.666809,447.174774 775.926025,431.137329 
775.926025,431.137329 766.666748,415.099854 
766.666748,415.099854 785.185242,415.099854 
785.185242,415.099854 794.444519,399.062317 
794.444519,399.062317 803.703796,415.099854 
803.703796,415.099854 822.222229,415.099823 
822.222229,415.099823 831.481445,399.062347 
831.481445,399.062347 822.222168,383.024811 
822.222168,383.024811 840.740723,383.024811 
840.740723,383.024811 850.000000,366.987305 
850.000000,366.987305" stroke="black" stroke-width="4" fill="blue" />
</svg>
