<svg xmlns="http://www.w3.org/2000/svg" version="1.1" width="1920" height="33000" >
<text x="90" y="15" fill="red">This is the Inital ROD this is the Final ROD This is the Aux ROD</text><text x="100" y="0" font-size="20">ndisks 6</text>
<rect x="100" y="250" width="400" height="20" fill="lime" />
<rect x="100" y="70" width="20" height="190" fill="lime" />
<rect x="290" y="70" width="20" height="190" fill="lime" />
<rect x="480" y="70" width="20" height="190" fill="lime" />
<rect x="105" y="180" width="30" height="10" fill="indigo" /> 
<rect x="95" y="155" width="45" height="15" fill="magenta" /> 
<rect x="85" y="130" width="60" height="20" fill="blue" /> 
<rect x="75" y="105" width="75" height="25" fill="yellow" /> 
<rect x="65" y="80" width="90" height="30" fill="red" /> 
<rect x="55" y="55" width="105" height="35" fill="black" /> 
<text x="100" y="250" font-size="20">the disk that will move 0</text>
<rect x="100" y="500" width="400" height="20" fill="lime" />
<rect x="100" y="320" width="20" height="190" fill="lime" />
<rect x="290" y="320" width="20" height="190" fill="lime" />
<rect x="480" y="320" width="20" height="190" fill="lime" />
<rect x="105" y="430" width="30" height="10" fill="indigo" /> 
<rect x="95" y="405" width="45" height="15" fill="magenta" /> 
<rect x="85" y="380" width="60" height="20" fill="blue" /> 
<rect x="75" y="355" width="75" height="25" fill="yellow" /> 
<rect x="65" y="330" width="90" height="30" fill="red" /> 
<rect x="425" y="305" width="105" height="35" fill="black" /> 
<text x="100" y="500" font-size="20">the disk that will move 1</text>
<rect x="100" y="750" width="400" height="20" fill="lime" />
<rect x="100" y="570" width="20" height="190" fill="lime" />
<rect x="290" y="570" width="20" height="190" fill="lime" />
<rect x="480" y="570" width="20" height="190" fill="lime" />
<rect x="105" y="680" width="30" height="10" fill="indigo" /> 
<rect x="95" y="655" width="45" height="15" fill="magenta" /> 
<rect x="85" y="630" width="60" height="20" fill="blue" /> 
<rect x="75" y="605" width="75" height="25" fill="yellow" /> 
<rect x="250" y="580" width="90" height="30" fill="red" /> 
<rect x="425" y="555" width="105" height="35" fill="black" /> 
<text x="100" y="750" font-size="20">the disk that will move 0</text>
<rect x="100" y="1000" width="400" height="20" fill="lime" />
<rect x="100" y="820" width="20" height="190" fill="lime" />
<rect x="290" y="820" width="20" height="190" fill="lime" />
<rect x="480" y="820" width="20" height="190" fill="lime" />
<rect x="105" y="930" width="30" height="10" fill="indigo" /> 
<rect x="95" y="905" width="45" height="15" fill="magenta" /> 
<rect x="85" y="880" width="60" height="20" fill="blue" /> 
<rect x="75" y="855" width="75" height="25" fill="yellow" /> 
<rect x="250" y="830" width="90" height="30" fill="red" /> 
<rect x="240" y="805" width="105" height="35" fill="black" /> 
<text x="100" y="1000" font-size="20">the disk that will move 2</text>
<rect x="100" y="1250" width="400" height="20" fill="lime" />
<rect x="100" y="1070" width="20" height="190" fill="lime" />
<rect x="290" y="1070" width="20" height="190" fill="lime" />
<rect x="480" y="1070" width="20" height="190" fill="lime" />
<rect x="105" y="1180" width="30" height="10" fill="indigo" /> 
<rect x="95" y="1155" width="45" height="15" fill="magenta" /> 
<rect x="85" y="1130" width="60" height="20" fill="blue" /> 
<rect x="445" y="1105" width="75" height="25" fill="yellow" /> 
<rect x="250" y="1080" width="90" height="30" fill="red" /> 
<rect x="240" y="1055" width="105" height="35" fill="black" /> 
<text x="100" y="1250" font-size="20">the disk that will move 0</text>
<rect x="100" y="1500" width="400" height="20" fill="lime" />
<rect x="100" y="1320" width="20" height="190" fill="lime" />
<rect x="290" y="1320" width="20" height="190" fill="lime" />
<rect x="480" y="1320" width="20" height="190" fill="lime" />
<rect x="105" y="1430" width="30" height="10" fill="indigo" /> 
<rect x="95" y="1405" width="45" height="15" fill="magenta" /> 
<rect x="85" y="1380" width="60" height="20" fill="blue" /> 
<rect x="445" y="1355" width="75" height="25" fill="yellow" /> 
<rect x="250" y="1330" width="90" height="30" fill="red" /> 
<rect x="55" y="1305" width="105" height="35" fill="black" /> 
<text x="100" y="1500" font-size="20">the disk that will move 1</text>
<rect x="100" y="1750" width="400" height="20" fill="lime" />
<rect x="100" y="1570" width="20" height="190" fill="lime" />
<rect x="290" y="1570" width="20" height="190" fill="lime" />
<rect x="480" y="1570" width="20" height="190" fill="lime" />
<rect x="105" y="1680" width="30" height="10" fill="indigo" /> 
<rect x="95" y="1655" width="45" height="15" fill="magenta" /> 
<rect x="85" y="1630" width="60" height="20" fill="blue" /> 
<rect x="445" y="1605" width="75" height="25" fill="yellow" /> 
<rect x="435" y="1580" width="90" height="30" fill="red" /> 
<rect x="55" y="1555" width="105" height="35" fill="black" /> 
<text x="100" y="1750" font-size="20">the disk that will move 0</text>
<rect x="100" y="2000" width="400" height="20" fill="lime" />
<rect x="100" y="1820" width="20" height="190" fill="lime" />
<rect x="290" y="1820" width="20" height="190" fill="lime" />
<rect x="480" y="1820" width="20" height="190" fill="lime" />
<rect x="105" y="1930" width="30" height="10" fill="indigo" /> 
<rect x="95" y="1905" width="45" height="15" fill="magenta" /> 
<rect x="85" y="1880" width="60" height="20" fill="blue" /> 
<rect x="445" y="1855" width="75" height="25" fill="yellow" /> 
<rect x="435" y="1830" width="90" height="30" fill="red" /> 
<rect x="425" y="1805" width="105" height="35" fill="black" /> 
<text x="100" y="2000" font-size="20">the disk that will move 3</text>
<rect x="100" y="2250" width="400" height="20" fill="lime" />
<rect x="100" y="2070" width="20" height="190" fill="lime" />
<rect x="290" y="2070" width="20" height="190" fill="lime" />
<rect x="480" y="2070" width="20" height="190" fill="lime" />
<rect x="105" y="2180" width="30" height="10" fill="indigo" /> 
<rect x="95" y="2155" width="45" height="15" fill="magenta" /> 
<rect x="270" y="2130" width="60" height="20" fill="blue" /> 
<rect x="445" y="2105" width="75" height="25" fill="yellow" /> 
<rect x="435" y="2080" width="90" height="30" fill="red" /> 
<rect x="425" y="2055" width="105" height="35" fill="black" /> 
<text x="100" y="2250" font-size="20">the disk that will move 0</text>
<rect x="100" y="2500" width="400" height="20" fill="lime" />
<rect x="100" y="2320" width="20" height="190" fill="lime" />
<rect x="290" y="2320" width="20" height="190" fill="lime" />
<rect x="480" y="2320" width="20" height="190" fill="lime" />
<rect x="105" y="2430" width="30" height="10" fill="indigo" /> 
<rect x="95" y="2405" width="45" height="15" fill="magenta" /> 
<rect x="270" y="2380" width="60" height="20" fill="blue" /> 
<rect x="445" y="2355" width="75" height="25" fill="yellow" /> 
<rect x="435" y="2330" width="90" height="30" fill="red" /> 
<rect x="240" y="2305" width="105" height="35" fill="black" /> 
<text x="100" y="2500" font-size="20">the disk that will move 1</text>
<rect x="100" y="2750" width="400" height="20" fill="lime" />
<rect x="100" y="2570" width="20" height="190" fill="lime" />
<rect x="290" y="2570" width="20" height="190" fill="lime" />
<rect x="480" y="2570" width="20" height="190" fill="lime" />
<rect x="105" y="2680" width="30" height="10" fill="indigo" /> 
<rect x="95" y="2655" width="45" height="15" fill="magenta" /> 
<rect x="270" y="2630" width="60" height="20" fill="blue" /> 
<rect x="445" y="2605" width="75" height="25" fill="yellow" /> 
<rect x="65" y="2580" width="90" height="30" fill="red" /> 
<rect x="240" y="2555" width="105" height="35" fill="black" /> 
<text x="100" y="2750" font-size="20">the disk that will move 0</text>
<rect x="100" y="3000" width="400" height="20" fill="lime" />
<rect x="100" y="2820" width="20" height="190" fill="lime" />
<rect x="290" y="2820" width="20" height="190" fill="lime" />
<rect x="480" y="2820" width="20" height="190" fill="lime" />
<rect x="105" y="2930" width="30" height="10" fill="indigo" /> 
<rect x="95" y="2905" width="45" height="15" fill="magenta" /> 
<rect x="270" y="2880" width="60" height="20" fill="blue" /> 
<rect x="445" y="2855" width="75" height="25" fill="yellow" /> 
<rect x="65" y="2830" width="90" height="30" fill="red" /> 
<rect x="55" y="2805" width="105" height="35" fill="black" /> 
<text x="100" y="3000" font-size="20">the disk that will move 2</text>
<rect x="100" y="3250" width="400" height="20" fill="lime" />
<rect x="100" y="3070" width="20" height="190" fill="lime" />
<rect x="290" y="3070" width="20" height="190" fill="lime" />
<rect x="480" y="3070" width="20" height="190" fill="lime" />
<rect x="105" y="3180" width="30" height="10" fill="indigo" /> 
<rect x="95" y="3155" width="45" height="15" fill="magenta" /> 
<rect x="270" y="3130" width="60" height="20" fill="blue" /> 
<rect x="260" y="3105" width="75" height="25" fill="yellow" /> 
<rect x="65" y="3080" width="90" height="30" fill="red" /> 
<rect x="55" y="3055" width="105" height="35" fill="black" /> 
<text x="100" y="3250" font-size="20">the disk that will move 0</text>
<rect x="100" y="3500" width="400" height="20" fill="lime" />
<rect x="100" y="3320" width="20" height="190" fill="lime" />
<rect x="290" y="3320" width="20" height="190" fill="lime" />
<rect x="480" y="3320" width="20" height="190" fill="lime" />
<rect x="105" y="3430" width="30" height="10" fill="indigo" /> 
<rect x="95" y="3405" width="45" height="15" fill="magenta" /> 
<rect x="270" y="3380" width="60" height="20" fill="blue" /> 
<rect x="260" y="3355" width="75" height="25" fill="yellow" /> 
<rect x="65" y="3330" width="90" height="30" fill="red" /> 
<rect x="425" y="3305" width="105" height="35" fill="black" /> 
<text x="100" y="3500" font-size="20">the disk that will move 1</text>
<rect x="100" y="3750" width="400" height="20" fill="lime" />
<rect x="100" y="3570" width="20" height="190" fill="lime" />
<rect x="290" y="3570" width="20" height="190" fill="lime" />
<rect x="480" y="3570" width="20" height="190" fill="lime" />
<rect x="105" y="3680" width="30" height="10" fill="indigo" /> 
<rect x="95" y="3655" width="45" height="15" fill="magenta" /> 
<rect x="270" y="3630" width="60" height="20" fill="blue" /> 
<rect x="260" y="3605" width="75" height="25" fill="yellow" /> 
<rect x="250" y="3580" width="90" height="30" fill="red" /> 
<rect x="425" y="3555" width="105" height="35" fill="black" /> 
<text x="100" y="3750" font-size="20">the disk that will move 0</text>
<rect x="100" y="4000" width="400" height="20" fill="lime" />
<rect x="100" y="3820" width="20" height="190" fill="lime" />
<rect x="290" y="3820" width="20" height="190" fill="lime" />
<rect x="480" y="3820" width="20" height="190" fill="lime" />
<rect x="105" y="3930" width="30" height="10" fill="indigo" /> 
<rect x="95" y="3905" width="45" height="15" fill="magenta" /> 
<rect x="270" y="3880" width="60" height="20" fill="blue" /> 
<rect x="260" y="3855" width="75" height="25" fill="yellow" /> 
<rect x="250" y="3830" width="90" height="30" fill="red" /> 
<rect x="240" y="3805" width="105" height="35" fill="black" /> 
<text x="100" y="4000" font-size="20">the disk that will move 4</text>
<rect x="100" y="4250" width="400" height="20" fill="lime" />
<rect x="100" y="4070" width="20" height="190" fill="lime" />
<rect x="290" y="4070" width="20" height="190" fill="lime" />
<rect x="480" y="4070" width="20" height="190" fill="lime" />
<rect x="105" y="4180" width="30" height="10" fill="indigo" /> 
<rect x="465" y="4155" width="45" height="15" fill="magenta" /> 
<rect x="270" y="4130" width="60" height="20" fill="blue" /> 
<rect x="260" y="4105" width="75" height="25" fill="yellow" /> 
<rect x="250" y="4080" width="90" height="30" fill="red" /> 
<rect x="240" y="4055" width="105" height="35" fill="black" /> 
<text x="100" y="4250" font-size="20">the disk that will move 0</text>
<rect x="100" y="4500" width="400" height="20" fill="lime" />
<rect x="100" y="4320" width="20" height="190" fill="lime" />
<rect x="290" y="4320" width="20" height="190" fill="lime" />
<rect x="480" y="4320" width="20" height="190" fill="lime" />
<rect x="105" y="4430" width="30" height="10" fill="indigo" /> 
<rect x="465" y="4405" width="45" height="15" fill="magenta" /> 
<rect x="270" y="4380" width="60" height="20" fill="blue" /> 
<rect x="260" y="4355" width="75" height="25" fill="yellow" /> 
<rect x="250" y="4330" width="90" height="30" fill="red" /> 
<rect x="55" y="4305" width="105" height="35" fill="black" /> 
<text x="100" y="4500" font-size="20">the disk that will move 1</text>
<rect x="100" y="4750" width="400" height="20" fill="lime" />
<rect x="100" y="4570" width="20" height="190" fill="lime" />
<rect x="290" y="4570" width="20" height="190" fill="lime" />
<rect x="480" y="4570" width="20" height="190" fill="lime" />
<rect x="105" y="4680" width="30" height="10" fill="indigo" /> 
<rect x="465" y="4655" width="45" height="15" fill="magenta" /> 
<rect x="270" y="4630" width="60" height="20" fill="blue" /> 
<rect x="260" y="4605" width="75" height="25" fill="yellow" /> 
<rect x="435" y="4580" width="90" height="30" fill="red" /> 
<rect x="55" y="4555" width="105" height="35" fill="black" /> 
<text x="100" y="4750" font-size="20">the disk that will move 0</text>
<rect x="100" y="5000" width="400" height="20" fill="lime" />
<rect x="100" y="4820" width="20" height="190" fill="lime" />
<rect x="290" y="4820" width="20" height="190" fill="lime" />
<rect x="480" y="4820" width="20" height="190" fill="lime" />
<rect x="105" y="4930" width="30" height="10" fill="indigo" /> 
<rect x="465" y="4905" width="45" height="15" fill="magenta" /> 
<rect x="270" y="4880" width="60" height="20" fill="blue" /> 
<rect x="260" y="4855" width="75" height="25" fill="yellow" /> 
<rect x="435" y="4830" width="90" height="30" fill="red" /> 
<rect x="425" y="4805" width="105" height="35" fill="black" /> 
<text x="100" y="5000" font-size="20">the disk that will move 2</text>
<rect x="100" y="5250" width="400" height="20" fill="lime" />
<rect x="100" y="5070" width="20" height="190" fill="lime" />
<rect x="290" y="5070" width="20" height="190" fill="lime" />
<rect x="480" y="5070" width="20" height="190" fill="lime" />
<rect x="105" y="5180" width="30" height="10" fill="indigo" /> 
<rect x="465" y="5155" width="45" height="15" fill="magenta" /> 
<rect x="270" y="5130" width="60" height="20" fill="blue" /> 
<rect x="75" y="5105" width="75" height="25" fill="yellow" /> 
<rect x="435" y="5080" width="90" height="30" fill="red" /> 
<rect x="425" y="5055" width="105" height="35" fill="black" /> 
<text x="100" y="5250" font-size="20">the disk that will move 0</text>
<rect x="100" y="5500" width="400" height="20" fill="lime" />
<rect x="100" y="5320" width="20" height="190" fill="lime" />
<rect x="290" y="5320" width="20" height="190" fill="lime" />
<rect x="480" y="5320" width="20" height="190" fill="lime" />
<rect x="105" y="5430" width="30" height="10" fill="indigo" /> 
<rect x="465" y="5405" width="45" height="15" fill="magenta" /> 
<rect x="270" y="5380" width="60" height="20" fill="blue" /> 
<rect x="75" y="5355" width="75" height="25" fill="yellow" /> 
<rect x="435" y="5330" width="90" height="30" fill="red" /> 
<rect x="240" y="5305" width="105" height="35" fill="black" /> 
<text x="100" y="5500" font-size="20">the disk that will move 1</text>
<rect x="100" y="5750" width="400" height="20" fill="lime" />
<rect x="100" y="5570" width="20" height="190" fill="lime" />
<rect x="290" y="5570" width="20" height="190" fill="lime" />
<rect x="480" y="5570" width="20" height="190" fill="lime" />
<rect x="105" y="5680" width="30" height="10" fill="indigo" /> 
<rect x="465" y="5655" width="45" height="15" fill="magenta" /> 
<rect x="270" y="5630" width="60" height="20" fill="blue" /> 
<rect x="75" y="5605" width="75" height="25" fill="yellow" /> 
<rect x="65" y="5580" width="90" height="30" fill="red" /> 
<rect x="240" y="5555" width="105" height="35" fill="black" /> 
<text x="100" y="5750" font-size="20">the disk that will move 0</text>
<rect x="100" y="6000" width="400" height="20" fill="lime" />
<rect x="100" y="5820" width="20" height="190" fill="lime" />
<rect x="290" y="5820" width="20" height="190" fill="lime" />
<rect x="480" y="5820" width="20" height="190" fill="lime" />
<rect x="105" y="5930" width="30" height="10" fill="indigo" /> 
<rect x="465" y="5905" width="45" height="15" fill="magenta" /> 
<rect x="270" y="5880" width="60" height="20" fill="blue" /> 
<rect x="75" y="5855" width="75" height="25" fill="yellow" /> 
<rect x="65" y="5830" width="90" height="30" fill="red" /> 
<rect x="55" y="5805" width="105" height="35" fill="black" /> 
<text x="100" y="6000" font-size="20">the disk that will move 3</text>
<rect x="100" y="6250" width="400" height="20" fill="lime" />
<rect x="100" y="6070" width="20" height="190" fill="lime" />
<rect x="290" y="6070" width="20" height="190" fill="lime" />
<rect x="480" y="6070" width="20" height="190" fill="lime" />
<rect x="105" y="6180" width="30" height="10" fill="indigo" /> 
<rect x="465" y="6155" width="45" height="15" fill="magenta" /> 
<rect x="455" y="6130" width="60" height="20" fill="blue" /> 
<rect x="75" y="6105" width="75" height="25" fill="yellow" /> 
<rect x="65" y="6080" width="90" height="30" fill="red" /> 
<rect x="55" y="6055" width="105" height="35" fill="black" /> 
<text x="100" y="6250" font-size="20">the disk that will move 0</text>
<rect x="100" y="6500" width="400" height="20" fill="lime" />
<rect x="100" y="6320" width="20" height="190" fill="lime" />
<rect x="290" y="6320" width="20" height="190" fill="lime" />
<rect x="480" y="6320" width="20" height="190" fill="lime" />
<rect x="105" y="6430" width="30" height="10" fill="indigo" /> 
<rect x="465" y="6405" width="45" height="15" fill="magenta" /> 
<rect x="455" y="6380" width="60" height="20" fill="blue" /> 
<rect x="75" y="6355" width="75" height="25" fill="yellow" /> 
<rect x="65" y="6330" width="90" height="30" fill="red" /> 
<rect x="425" y="6305" width="105" height="35" fill="black" /> 
<text x="100" y="6500" font-size="20">the disk that will move 1</text>
<rect x="100" y="6750" width="400" height="20" fill="lime" />
<rect x="100" y="6570" width="20" height="190" fill="lime" />
<rect x="290" y="6570" width="20" height="190" fill="lime" />
<rect x="480" y="6570" width="20" height="190" fill="lime" />
<rect x="105" y="6680" width="30" height="10" fill="indigo" /> 
<rect x="465" y="6655" width="45" height="15" fill="magenta" /> 
<rect x="455" y="6630" width="60" height="20" fill="blue" /> 
<rect x="75" y="6605" width="75" height="25" fill="yellow" /> 
<rect x="250" y="6580" width="90" height="30" fill="red" /> 
<rect x="425" y="6555" width="105" height="35" fill="black" /> 
<text x="100" y="6750" font-size="20">the disk that will move 0</text>
<rect x="100" y="7000" width="400" height="20" fill="lime" />
<rect x="100" y="6820" width="20" height="190" fill="lime" />
<rect x="290" y="6820" width="20" height="190" fill="lime" />
<rect x="480" y="6820" width="20" height="190" fill="lime" />
<rect x="105" y="6930" width="30" height="10" fill="indigo" /> 
<rect x="465" y="6905" width="45" height="15" fill="magenta" /> 
<rect x="455" y="6880" width="60" height="20" fill="blue" /> 
<rect x="75" y="6855" width="75" height="25" fill="yellow" /> 
<rect x="250" y="6830" width="90" height="30" fill="red" /> 
<rect x="240" y="6805" width="105" height="35" fill="black" /> 
<text x="100" y="7000" font-size="20">the disk that will move 2</text>
<rect x="100" y="7250" width="400" height="20" fill="lime" />
<rect x="100" y="7070" width="20" height="190" fill="lime" />
<rect x="290" y="7070" width="20" height="190" fill="lime" />
<rect x="480" y="7070" width="20" height="190" fill="lime" />
<rect x="105" y="7180" width="30" height="10" fill="indigo" /> 
<rect x="465" y="7155" width="45" height="15" fill="magenta" /> 
<rect x="455" y="7130" width="60" height="20" fill="blue" /> 
<rect x="445" y="7105" width="75" height="25" fill="yellow" /> 
<rect x="250" y="7080" width="90" height="30" fill="red" /> 
<rect x="240" y="7055" width="105" height="35" fill="black" /> 
<text x="100" y="7250" font-size="20">the disk that will move 0</text>
<rect x="100" y="7500" width="400" height="20" fill="lime" />
<rect x="100" y="7320" width="20" height="190" fill="lime" />
<rect x="290" y="7320" width="20" height="190" fill="lime" />
<rect x="480" y="7320" width="20" height="190" fill="lime" />
<rect x="105" y="7430" width="30" height="10" fill="indigo" /> 
<rect x="465" y="7405" width="45" height="15" fill="magenta" /> 
<rect x="455" y="7380" width="60" height="20" fill="blue" /> 
<rect x="445" y="7355" width="75" height="25" fill="yellow" /> 
<rect x="250" y="7330" width="90" height="30" fill="red" /> 
<rect x="55" y="7305" width="105" height="35" fill="black" /> 
<text x="100" y="7500" font-size="20">the disk that will move 1</text>
<rect x="100" y="7750" width="400" height="20" fill="lime" />
<rect x="100" y="7570" width="20" height="190" fill="lime" />
<rect x="290" y="7570" width="20" height="190" fill="lime" />
<rect x="480" y="7570" width="20" height="190" fill="lime" />
<rect x="105" y="7680" width="30" height="10" fill="indigo" /> 
<rect x="465" y="7655" width="45" height="15" fill="magenta" /> 
<rect x="455" y="7630" width="60" height="20" fill="blue" /> 
<rect x="445" y="7605" width="75" height="25" fill="yellow" /> 
<rect x="435" y="7580" width="90" height="30" fill="red" /> 
<rect x="55" y="7555" width="105" height="35" fill="black" /> 
<text x="100" y="7750" font-size="20">the disk that will move 0</text>
<rect x="100" y="8000" width="400" height="20" fill="lime" />
<rect x="100" y="7820" width="20" height="190" fill="lime" />
<rect x="290" y="7820" width="20" height="190" fill="lime" />
<rect x="480" y="7820" width="20" height="190" fill="lime" />
<rect x="105" y="7930" width="30" height="10" fill="indigo" /> 
<rect x="465" y="7905" width="45" height="15" fill="magenta" /> 
<rect x="455" y="7880" width="60" height="20" fill="blue" /> 
<rect x="445" y="7855" width="75" height="25" fill="yellow" /> 
<rect x="435" y="7830" width="90" height="30" fill="red" /> 
<rect x="425" y="7805" width="105" height="35" fill="black" /> 
<text x="100" y="8000" font-size="20">the disk that will move 5</text>
<rect x="100" y="8250" width="400" height="20" fill="lime" />
<rect x="100" y="8070" width="20" height="190" fill="lime" />
<rect x="290" y="8070" width="20" height="190" fill="lime" />
<rect x="480" y="8070" width="20" height="190" fill="lime" />
<rect x="290" y="8180" width="30" height="10" fill="indigo" /> 
<rect x="465" y="8155" width="45" height="15" fill="magenta" /> 
<rect x="455" y="8130" width="60" height="20" fill="blue" /> 
<rect x="445" y="8105" width="75" height="25" fill="yellow" /> 
<rect x="435" y="8080" width="90" height="30" fill="red" /> 
<rect x="425" y="8055" width="105" height="35" fill="black" /> 
<text x="100" y="8250" font-size="20">the disk that will move 0</text>
<rect x="100" y="8500" width="400" height="20" fill="lime" />
<rect x="100" y="8320" width="20" height="190" fill="lime" />
<rect x="290" y="8320" width="20" height="190" fill="lime" />
<rect x="480" y="8320" width="20" height="190" fill="lime" />
<rect x="290" y="8430" width="30" height="10" fill="indigo" /> 
<rect x="465" y="8405" width="45" height="15" fill="magenta" /> 
<rect x="455" y="8380" width="60" height="20" fill="blue" /> 
<rect x="445" y="8355" width="75" height="25" fill="yellow" /> 
<rect x="435" y="8330" width="90" height="30" fill="red" /> 
<rect x="240" y="8305" width="105" height="35" fill="black" /> 
<text x="100" y="8500" font-size="20">the disk that will move 1</text>
<rect x="100" y="8750" width="400" height="20" fill="lime" />
<rect x="100" y="8570" width="20" height="190" fill="lime" />
<rect x="290" y="8570" width="20" height="190" fill="lime" />
<rect x="480" y="8570" width="20" height="190" fill="lime" />
<rect x="290" y="8680" width="30" height="10" fill="indigo" /> 
<rect x="465" y="8655" width="45" height="15" fill="magenta" /> 
<rect x="455" y="8630" width="60" height="20" fill="blue" /> 
<rect x="445" y="8605" width="75" height="25" fill="yellow" /> 
<rect x="65" y="8580" width="90" height="30" fill="red" /> 
<rect x="240" y="8555" width="105" height="35" fill="black" /> 
<text x="100" y="8750" font-size="20">the disk that will move 0</text>
<rect x="100" y="9000" width="400" height="20" fill="lime" />
<rect x="100" y="8820" width="20" height="190" fill="lime" />
<rect x="290" y="8820" width="20" height="190" fill="lime" />
<rect x="480" y="8820" width="20" height="190" fill="lime" />
<rect x="290" y="8930" width="30" height="10" fill="indigo" /> 
<rect x="465" y="8905" width="45" height="15" fill="magenta" /> 
<rect x="455" y="8880" width="60" height="20" fill="blue" /> 
<rect x="445" y="8855" width="75" height="25" fill="yellow" /> 
<rect x="65" y="8830" width="90" height="30" fill="red" /> 
<rect x="55" y="8805" width="105" height="35" fill="black" /> 
<text x="100" y="9000" font-size="20">the disk that will move 2</text>
<rect x="100" y="9250" width="400" height="20" fill="lime" />
<rect x="100" y="9070" width="20" height="190" fill="lime" />
<rect x="290" y="9070" width="20" height="190" fill="lime" />
<rect x="480" y="9070" width="20" height="190" fill="lime" />
<rect x="290" y="9180" width="30" height="10" fill="indigo" /> 
<rect x="465" y="9155" width="45" height="15" fill="magenta" /> 
<rect x="455" y="9130" width="60" height="20" fill="blue" /> 
<rect x="260" y="9105" width="75" height="25" fill="yellow" /> 
<rect x="65" y="9080" width="90" height="30" fill="red" /> 
<rect x="55" y="9055" width="105" height="35" fill="black" /> 
<text x="100" y="9250" font-size="20">the disk that will move 0</text>
<rect x="100" y="9500" width="400" height="20" fill="lime" />
<rect x="100" y="9320" width="20" height="190" fill="lime" />
<rect x="290" y="9320" width="20" height="190" fill="lime" />
<rect x="480" y="9320" width="20" height="190" fill="lime" />
<rect x="290" y="9430" width="30" height="10" fill="indigo" /> 
<rect x="465" y="9405" width="45" height="15" fill="magenta" /> 
<rect x="455" y="9380" width="60" height="20" fill="blue" /> 
<rect x="260" y="9355" width="75" height="25" fill="yellow" /> 
<rect x="65" y="9330" width="90" height="30" fill="red" /> 
<rect x="425" y="9305" width="105" height="35" fill="black" /> 
<text x="100" y="9500" font-size="20">the disk that will move 1</text>
<rect x="100" y="9750" width="400" height="20" fill="lime" />
<rect x="100" y="9570" width="20" height="190" fill="lime" />
<rect x="290" y="9570" width="20" height="190" fill="lime" />
<rect x="480" y="9570" width="20" height="190" fill="lime" />
<rect x="290" y="9680" width="30" height="10" fill="indigo" /> 
<rect x="465" y="9655" width="45" height="15" fill="magenta" /> 
<rect x="455" y="9630" width="60" height="20" fill="blue" /> 
<rect x="260" y="9605" width="75" height="25" fill="yellow" /> 
<rect x="250" y="9580" width="90" height="30" fill="red" /> 
<rect x="425" y="9555" width="105" height="35" fill="black" /> 
<text x="100" y="9750" font-size="20">the disk that will move 0</text>
<rect x="100" y="10000" width="400" height="20" fill="lime" />
<rect x="100" y="9820" width="20" height="190" fill="lime" />
<rect x="290" y="9820" width="20" height="190" fill="lime" />
<rect x="480" y="9820" width="20" height="190" fill="lime" />
<rect x="290" y="9930" width="30" height="10" fill="indigo" /> 
<rect x="465" y="9905" width="45" height="15" fill="magenta" /> 
<rect x="455" y="9880" width="60" height="20" fill="blue" /> 
<rect x="260" y="9855" width="75" height="25" fill="yellow" /> 
<rect x="250" y="9830" width="90" height="30" fill="red" /> 
<rect x="240" y="9805" width="105" height="35" fill="black" /> 
<text x="100" y="10000" font-size="20">the disk that will move 3</text>
<rect x="100" y="10250" width="400" height="20" fill="lime" />
<rect x="100" y="10070" width="20" height="190" fill="lime" />
<rect x="290" y="10070" width="20" height="190" fill="lime" />
<rect x="480" y="10070" width="20" height="190" fill="lime" />
<rect x="290" y="10180" width="30" height="10" fill="indigo" /> 
<rect x="465" y="10155" width="45" height="15" fill="magenta" /> 
<rect x="85" y="10130" width="60" height="20" fill="blue" /> 
<rect x="260" y="10105" width="75" height="25" fill="yellow" /> 
<rect x="250" y="10080" width="90" height="30" fill="red" /> 
<rect x="240" y="10055" width="105" height="35" fill="black" /> 
<text x="100" y="10250" font-size="20">the disk that will move 0</text>
<rect x="100" y="10500" width="400" height="20" fill="lime" />
<rect x="100" y="10320" width="20" height="190" fill="lime" />
<rect x="290" y="10320" width="20" height="190" fill="lime" />
<rect x="480" y="10320" width="20" height="190" fill="lime" />
<rect x="290" y="10430" width="30" height="10" fill="indigo" /> 
<rect x="465" y="10405" width="45" height="15" fill="magenta" /> 
<rect x="85" y="10380" width="60" height="20" fill="blue" /> 
<rect x="260" y="10355" width="75" height="25" fill="yellow" /> 
<rect x="250" y="10330" width="90" height="30" fill="red" /> 
<rect x="55" y="10305" width="105" height="35" fill="black" /> 
<text x="100" y="10500" font-size="20">the disk that will move 1</text>
<rect x="100" y="10750" width="400" height="20" fill="lime" />
<rect x="100" y="10570" width="20" height="190" fill="lime" />
<rect x="290" y="10570" width="20" height="190" fill="lime" />
<rect x="480" y="10570" width="20" height="190" fill="lime" />
<rect x="290" y="10680" width="30" height="10" fill="indigo" /> 
<rect x="465" y="10655" width="45" height="15" fill="magenta" /> 
<rect x="85" y="10630" width="60" height="20" fill="blue" /> 
<rect x="260" y="10605" width="75" height="25" fill="yellow" /> 
<rect x="435" y="10580" width="90" height="30" fill="red" /> 
<rect x="55" y="10555" width="105" height="35" fill="black" /> 
<text x="100" y="10750" font-size="20">the disk that will move 0</text>
<rect x="100" y="11000" width="400" height="20" fill="lime" />
<rect x="100" y="10820" width="20" height="190" fill="lime" />
<rect x="290" y="10820" width="20" height="190" fill="lime" />
<rect x="480" y="10820" width="20" height="190" fill="lime" />
<rect x="290" y="10930" width="30" height="10" fill="indigo" /> 
<rect x="465" y="10905" width="45" height="15" fill="magenta" /> 
<rect x="85" y="10880" width="60" height="20" fill="blue" /> 
<rect x="260" y="10855" width="75" height="25" fill="yellow" /> 
<rect x="435" y="10830" width="90" height="30" fill="red" /> 
<rect x="425" y="10805" width="105" height="35" fill="black" /> 
<text x="100" y="11000" font-size="20">the disk that will move 2</text>
<rect x="100" y="11250" width="400" height="20" fill="lime" />
<rect x="100" y="11070" width="20" height="190" fill="lime" />
<rect x="290" y="11070" width="20" height="190" fill="lime" />
<rect x="480" y="11070" width="20" height="190" fill="lime" />
<rect x="290" y="11180" width="30" height="10" fill="indigo" /> 
<rect x="465" y="11155" width="45" height="15" fill="magenta" /> 
<rect x="85" y="11130" width="60" height="20" fill="blue" /> 
<rect x="75" y="11105" width="75" height="25" fill="yellow" /> 
<rect x="435" y="11080" width="90" height="30" fill="red" /> 
<rect x="425" y="11055" width="105" height="35" fill="black" /> 
<text x="100" y="11250" font-size="20">the disk that will move 0</text>
<rect x="100" y="11500" width="400" height="20" fill="lime" />
<rect x="100" y="11320" width="20" height="190" fill="lime" />
<rect x="290" y="11320" width="20" height="190" fill="lime" />
<rect x="480" y="11320" width="20" height="190" fill="lime" />
<rect x="290" y="11430" width="30" height="10" fill="indigo" /> 
<rect x="465" y="11405" width="45" height="15" fill="magenta" /> 
<rect x="85" y="11380" width="60" height="20" fill="blue" /> 
<rect x="75" y="11355" width="75" height="25" fill="yellow" /> 
<rect x="435" y="11330" width="90" height="30" fill="red" /> 
<rect x="240" y="11305" width="105" height="35" fill="black" /> 
<text x="100" y="11500" font-size="20">the disk that will move 1</text>
<rect x="100" y="11750" width="400" height="20" fill="lime" />
<rect x="100" y="11570" width="20" height="190" fill="lime" />
<rect x="290" y="11570" width="20" height="190" fill="lime" />
<rect x="480" y="11570" width="20" height="190" fill="lime" />
<rect x="290" y="11680" width="30" height="10" fill="indigo" /> 
<rect x="465" y="11655" width="45" height="15" fill="magenta" /> 
<rect x="85" y="11630" width="60" height="20" fill="blue" /> 
<rect x="75" y="11605" width="75" height="25" fill="yellow" /> 
<rect x="65" y="11580" width="90" height="30" fill="red" /> 
<rect x="240" y="11555" width="105" height="35" fill="black" /> 
<text x="100" y="11750" font-size="20">the disk that will move 0</text>
<rect x="100" y="12000" width="400" height="20" fill="lime" />
<rect x="100" y="11820" width="20" height="190" fill="lime" />
<rect x="290" y="11820" width="20" height="190" fill="lime" />
<rect x="480" y="11820" width="20" height="190" fill="lime" />
<rect x="290" y="11930" width="30" height="10" fill="indigo" /> 
<rect x="465" y="11905" width="45" height="15" fill="magenta" /> 
<rect x="85" y="11880" width="60" height="20" fill="blue" /> 
<rect x="75" y="11855" width="75" height="25" fill="yellow" /> 
<rect x="65" y="11830" width="90" height="30" fill="red" /> 
<rect x="55" y="11805" width="105" height="35" fill="black" /> 
<text x="100" y="12000" font-size="20">the disk that will move 4</text>
<rect x="100" y="12250" width="400" height="20" fill="lime" />
<rect x="100" y="12070" width="20" height="190" fill="lime" />
<rect x="290" y="12070" width="20" height="190" fill="lime" />
<rect x="480" y="12070" width="20" height="190" fill="lime" />
<rect x="290" y="12180" width="30" height="10" fill="indigo" /> 
<rect x="280" y="12155" width="45" height="15" fill="magenta" /> 
<rect x="85" y="12130" width="60" height="20" fill="blue" /> 
<rect x="75" y="12105" width="75" height="25" fill="yellow" /> 
<rect x="65" y="12080" width="90" height="30" fill="red" /> 
<rect x="55" y="12055" width="105" height="35" fill="black" /> 
<text x="100" y="12250" font-size="20">the disk that will move 0</text>
<rect x="100" y="12500" width="400" height="20" fill="lime" />
<rect x="100" y="12320" width="20" height="190" fill="lime" />
<rect x="290" y="12320" width="20" height="190" fill="lime" />
<rect x="480" y="12320" width="20" height="190" fill="lime" />
<rect x="290" y="12430" width="30" height="10" fill="indigo" /> 
<rect x="280" y="12405" width="45" height="15" fill="magenta" /> 
<rect x="85" y="12380" width="60" height="20" fill="blue" /> 
<rect x="75" y="12355" width="75" height="25" fill="yellow" /> 
<rect x="65" y="12330" width="90" height="30" fill="red" /> 
<rect x="425" y="12305" width="105" height="35" fill="black" /> 
<text x="100" y="12500" font-size="20">the disk that will move 1</text>
<rect x="100" y="12750" width="400" height="20" fill="lime" />
<rect x="100" y="12570" width="20" height="190" fill="lime" />
<rect x="290" y="12570" width="20" height="190" fill="lime" />
<rect x="480" y="12570" width="20" height="190" fill="lime" />
<rect x="290" y="12680" width="30" height="10" fill="indigo" /> 
<rect x="280" y="12655" width="45" height="15" fill="magenta" /> 
<rect x="85" y="12630" width="60" height="20" fill="blue" /> 
<rect x="75" y="12605" width="75" height="25" fill="yellow" /> 
<rect x="250" y="12580" width="90" height="30" fill="red" /> 
<rect x="425" y="12555" width="105" height="35" fill="black" /> 
<text x="100" y="12750" font-size="20">the disk that will move 0</text>
<rect x="100" y="13000" width="400" height="20" fill="lime" />
<rect x="100" y="12820" width="20" height="190" fill="lime" />
<rect x="290" y="12820" width="20" height="190" fill="lime" />
<rect x="480" y="12820" width="20" height="190" fill="lime" />
<rect x="290" y="12930" width="30" height="10" fill="indigo" /> 
<rect x="280" y="12905" width="45" height="15" fill="magenta" /> 
<rect x="85" y="12880" width="60" height="20" fill="blue" /> 
<rect x="75" y="12855" width="75" height="25" fill="yellow" /> 
<rect x="250" y="12830" width="90" height="30" fill="red" /> 
<rect x="240" y="12805" width="105" height="35" fill="black" /> 
<text x="100" y="13000" font-size="20">the disk that will move 2</text>
<rect x="100" y="13250" width="400" height="20" fill="lime" />
<rect x="100" y="13070" width="20" height="190" fill="lime" />
<rect x="290" y="13070" width="20" height="190" fill="lime" />
<rect x="480" y="13070" width="20" height="190" fill="lime" />
<rect x="290" y="13180" width="30" height="10" fill="indigo" /> 
<rect x="280" y="13155" width="45" height="15" fill="magenta" /> 
<rect x="85" y="13130" width="60" height="20" fill="blue" /> 
<rect x="445" y="13105" width="75" height="25" fill="yellow" /> 
<rect x="250" y="13080" width="90" height="30" fill="red" /> 
<rect x="240" y="13055" width="105" height="35" fill="black" /> 
<text x="100" y="13250" font-size="20">the disk that will move 0</text>
<rect x="100" y="13500" width="400" height="20" fill="lime" />
<rect x="100" y="13320" width="20" height="190" fill="lime" />
<rect x="290" y="13320" width="20" height="190" fill="lime" />
<rect x="480" y="13320" width="20" height="190" fill="lime" />
<rect x="290" y="13430" width="30" height="10" fill="indigo" /> 
<rect x="280" y="13405" width="45" height="15" fill="magenta" /> 
<rect x="85" y="13380" width="60" height="20" fill="blue" /> 
<rect x="445" y="13355" width="75" height="25" fill="yellow" /> 
<rect x="250" y="13330" width="90" height="30" fill="red" /> 
<rect x="55" y="13305" width="105" height="35" fill="black" /> 
<text x="100" y="13500" font-size="20">the disk that will move 1</text>
<rect x="100" y="13750" width="400" height="20" fill="lime" />
<rect x="100" y="13570" width="20" height="190" fill="lime" />
<rect x="290" y="13570" width="20" height="190" fill="lime" />
<rect x="480" y="13570" width="20" height="190" fill="lime" />
<rect x="290" y="13680" width="30" height="10" fill="indigo" /> 
<rect x="280" y="13655" width="45" height="15" fill="magenta" /> 
<rect x="85" y="13630" width="60" height="20" fill="blue" /> 
<rect x="445" y="13605" width="75" height="25" fill="yellow" /> 
<rect x="435" y="13580" width="90" height="30" fill="red" /> 
<rect x="55" y="13555" width="105" height="35" fill="black" /> 
<text x="100" y="13750" font-size="20">the disk that will move 0</text>
<rect x="100" y="14000" width="400" height="20" fill="lime" />
<rect x="100" y="13820" width="20" height="190" fill="lime" />
<rect x="290" y="13820" width="20" height="190" fill="lime" />
<rect x="480" y="13820" width="20" height="190" fill="lime" />
<rect x="290" y="13930" width="30" height="10" fill="indigo" /> 
<rect x="280" y="13905" width="45" height="15" fill="magenta" /> 
<rect x="85" y="13880" width="60" height="20" fill="blue" /> 
<rect x="445" y="13855" width="75" height="25" fill="yellow" /> 
<rect x="435" y="13830" width="90" height="30" fill="red" /> 
<rect x="425" y="13805" width="105" height="35" fill="black" /> 
<text x="100" y="14000" font-size="20">the disk that will move 3</text>
<rect x="100" y="14250" width="400" height="20" fill="lime" />
<rect x="100" y="14070" width="20" height="190" fill="lime" />
<rect x="290" y="14070" width="20" height="190" fill="lime" />
<rect x="480" y="14070" width="20" height="190" fill="lime" />
<rect x="290" y="14180" width="30" height="10" fill="indigo" /> 
<rect x="280" y="14155" width="45" height="15" fill="magenta" /> 
<rect x="270" y="14130" width="60" height="20" fill="blue" /> 
<rect x="445" y="14105" width="75" height="25" fill="yellow" /> 
<rect x="435" y="14080" width="90" height="30" fill="red" /> 
<rect x="425" y="14055" width="105" height="35" fill="black" /> 
<text x="100" y="14250" font-size="20">the disk that will move 0</text>
<rect x="100" y="14500" width="400" height="20" fill="lime" />
<rect x="100" y="14320" width="20" height="190" fill="lime" />
<rect x="290" y="14320" width="20" height="190" fill="lime" />
<rect x="480" y="14320" width="20" height="190" fill="lime" />
<rect x="290" y="14430" width="30" height="10" fill="indigo" /> 
<rect x="280" y="14405" width="45" height="15" fill="magenta" /> 
<rect x="270" y="14380" width="60" height="20" fill="blue" /> 
<rect x="445" y="14355" width="75" height="25" fill="yellow" /> 
<rect x="435" y="14330" width="90" height="30" fill="red" /> 
<rect x="240" y="14305" width="105" height="35" fill="black" /> 
<text x="100" y="14500" font-size="20">the disk that will move 1</text>
<rect x="100" y="14750" width="400" height="20" fill="lime" />
<rect x="100" y="14570" width="20" height="190" fill="lime" />
<rect x="290" y="14570" width="20" height="190" fill="lime" />
<rect x="480" y="14570" width="20" height="190" fill="lime" />
<rect x="290" y="14680" width="30" height="10" fill="indigo" /> 
<rect x="280" y="14655" width="45" height="15" fill="magenta" /> 
<rect x="270" y="14630" width="60" height="20" fill="blue" /> 
<rect x="445" y="14605" width="75" height="25" fill="yellow" /> 
<rect x="65" y="14580" width="90" height="30" fill="red" /> 
<rect x="240" y="14555" width="105" height="35" fill="black" /> 
<text x="100" y="14750" font-size="20">the disk that will move 0</text>
<rect x="100" y="15000" width="400" height="20" fill="lime" />
<rect x="100" y="14820" width="20" height="190" fill="lime" />
<rect x="290" y="14820" width="20" height="190" fill="lime" />
<rect x="480" y="14820" width="20" height="190" fill="lime" />
<rect x="290" y="14930" width="30" height="10" fill="indigo" /> 
<rect x="280" y="14905" width="45" height="15" fill="magenta" /> 
<rect x="270" y="14880" width="60" height="20" fill="blue" /> 
<rect x="445" y="14855" width="75" height="25" fill="yellow" /> 
<rect x="65" y="14830" width="90" height="30" fill="red" /> 
<rect x="55" y="14805" width="105" height="35" fill="black" /> 
<text x="100" y="15000" font-size="20">the disk that will move 2</text>
<rect x="100" y="15250" width="400" height="20" fill="lime" />
<rect x="100" y="15070" width="20" height="190" fill="lime" />
<rect x="290" y="15070" width="20" height="190" fill="lime" />
<rect x="480" y="15070" width="20" height="190" fill="lime" />
<rect x="290" y="15180" width="30" height="10" fill="indigo" /> 
<rect x="280" y="15155" width="45" height="15" fill="magenta" /> 
<rect x="270" y="15130" width="60" height="20" fill="blue" /> 
<rect x="260" y="15105" width="75" height="25" fill="yellow" /> 
<rect x="65" y="15080" width="90" height="30" fill="red" /> 
<rect x="55" y="15055" width="105" height="35" fill="black" /> 
<text x="100" y="15250" font-size="20">the disk that will move 0</text>
<rect x="100" y="15500" width="400" height="20" fill="lime" />
<rect x="100" y="15320" width="20" height="190" fill="lime" />
<rect x="290" y="15320" width="20" height="190" fill="lime" />
<rect x="480" y="15320" width="20" height="190" fill="lime" />
<rect x="290" y="15430" width="30" height="10" fill="indigo" /> 
<rect x="280" y="15405" width="45" height="15" fill="magenta" /> 
<rect x="270" y="15380" width="60" height="20" fill="blue" /> 
<rect x="260" y="15355" width="75" height="25" fill="yellow" /> 
<rect x="65" y="15330" width="90" height="30" fill="red" /> 
<rect x="425" y="15305" width="105" height="35" fill="black" /> 
<text x="100" y="15500" font-size="20">the disk that will move 1</text>
<rect x="100" y="15750" width="400" height="20" fill="lime" />
<rect x="100" y="15570" width="20" height="190" fill="lime" />
<rect x="290" y="15570" width="20" height="190" fill="lime" />
<rect x="480" y="15570" width="20" height="190" fill="lime" />
<rect x="290" y="15680" width="30" height="10" fill="indigo" /> 
<rect x="280" y="15655" width="45" height="15" fill="magenta" /> 
<rect x="270" y="15630" width="60" height="20" fill="blue" /> 
<rect x="260" y="15605" width="75" height="25" fill="yellow" /> 
<rect x="250" y="15580" width="90" height="30" fill="red" /> 
<rect x="425" y="15555" width="105" height="35" fill="black" /> 
<text x="100" y="15750" font-size="20">the disk that will move 0</text>
<rect x="100" y="16000" width="400" height="20" fill="lime" />
<rect x="100" y="15820" width="20" height="190" fill="lime" />
<rect x="290" y="15820" width="20" height="190" fill="lime" />
<rect x="480" y="15820" width="20" height="190" fill="lime" />
<rect x="290" y="15930" width="30" height="10" fill="indigo" /> 
<rect x="280" y="15905" width="45" height="15" fill="magenta" /> 
<rect x="270" y="15880" width="60" height="20" fill="blue" /> 
<rect x="260" y="15855" width="75" height="25" fill="yellow" /> 
<rect x="250" y="15830" width="90" height="30" fill="red" /> 
<rect x="240" y="15805" width="105" height="35" fill="black" /> 
<text x="100" y="16000" font-size="20">the disk that will move 6</text>
</svg>